<svg class="main-svg" xmlns="http://www.w3.org/2000/svg" xmlns:xlink="http://www.w3.org/1999/xlink" width="700" height="500" style="" viewBox="0 0 700 500"><rect x="0" y="0" width="700" height="500" style="fill: rgb(255, 255, 255); fill-opacity: 1;"/><defs id="defs-f84666"><g class="clips"><clipPath id="clipf84666xyplot" class="plotclip"><rect width="532" height="306"/></clipPath><clipPath class="axesclip" id="clipf84666x"><rect x="88" y="0" width="532" height="500"/></clipPath><clipPath class="axesclip" id="clipf84666y"><rect x="0" y="100" width="700" height="306"/></clipPath><clipPath class="axesclip" id="clipf84666xy"><rect x="88" y="100" width="532" height="306"/></clipPath></g><g class="gradients"/></defs><g class="bglayer"/><g class="layer-below"><g class="imagelayer"/><g class="shapelayer"/></g><g class="cartesianlayer"><g class="subplot xy"><g class="layer-subplot"><g class="shapelayer"/><g class="imagelayer"/></g><g class="gridlayer"><g class="x"><path class="xgrid crisp" transform="translate(103.76,0)" d="M0,100v306" style="stroke: rgb(235, 240, 248); stroke-opacity: 1; stroke-width: 1px;"/><path class="xgrid crisp" transform="translate(119.53,0)" d="M0,100v306" style="stroke: rgb(235, 240, 248); stroke-opacity: 1; stroke-width: 1px;"/><path class="xgrid crisp" transform="translate(135.29,0)" d="M0,100v306" style="stroke: rgb(235, 240, 248); stroke-opacity: 1; stroke-width: 1px;"/><path class="xgrid crisp" transform="translate(151.05,0)" d="M0,100v306" style="stroke: rgb(235, 240, 248); stroke-opacity: 1; stroke-width: 1px;"/><path class="xgrid crisp" transform="translate(166.81,0)" d="M0,100v306" style="stroke: rgb(235, 240, 248); stroke-opacity: 1; stroke-width: 1px;"/><path class="xgrid crisp" transform="translate(182.57999999999998,0)" d="M0,100v306" style="stroke: rgb(235, 240, 248); stroke-opacity: 1; stroke-width: 1px;"/><path class="xgrid crisp" transform="translate(198.34,0)" d="M0,100v306" style="stroke: rgb(235, 240, 248); stroke-opacity: 1; stroke-width: 1px;"/><path class="xgrid crisp" transform="translate(214.1,0)" d="M0,100v306" style="stroke: rgb(235, 240, 248); stroke-opacity: 1; stroke-width: 1px;"/><path class="xgrid crisp" transform="translate(229.87,0)" d="M0,100v306" style="stroke: rgb(235, 240, 248); stroke-opacity: 1; stroke-width: 1px;"/><path class="xgrid crisp" transform="translate(245.63,0)" d="M0,100v306" style="stroke: rgb(235, 240, 248); stroke-opacity: 1; stroke-width: 1px;"/><path class="xgrid crisp" transform="translate(261.39,0)" d="M0,100v306" style="stroke: rgb(235, 240, 248); stroke-opacity: 1; stroke-width: 1px;"/><path class="xgrid crisp" transform="translate(277.15999999999997,0)" d="M0,100v306" style="stroke: rgb(235, 240, 248); stroke-opacity: 1; stroke-width: 1px;"/><path class="xgrid crisp" transform="translate(292.91999999999996,0)" d="M0,100v306" style="stroke: rgb(235, 240, 248); stroke-opacity: 1; stroke-width: 1px;"/><path class="xgrid crisp" transform="translate(308.68,0)" d="M0,100v306" style="stroke: rgb(235, 240, 248); stroke-opacity: 1; stroke-width: 1px;"/><path class="xgrid crisp" transform="translate(324.44,0)" d="M0,100v306" style="stroke: rgb(235, 240, 248); stroke-opacity: 1; stroke-width: 1px;"/><path class="xgrid crisp" transform="translate(340.21000000000004,0)" d="M0,100v306" style="stroke: rgb(235, 240, 248); stroke-opacity: 1; stroke-width: 1px;"/><path class="xgrid crisp" transform="translate(355.97,0)" d="M0,100v306" style="stroke: rgb(235, 240, 248); stroke-opacity: 1; stroke-width: 1px;"/><path class="xgrid crisp" transform="translate(371.73,0)" d="M0,100v306" style="stroke: rgb(235, 240, 248); stroke-opacity: 1; stroke-width: 1px;"/><path class="xgrid crisp" transform="translate(387.5,0)" d="M0,100v306" style="stroke: rgb(235, 240, 248); stroke-opacity: 1; stroke-width: 1px;"/><path class="xgrid crisp" transform="translate(403.26,0)" d="M0,100v306" style="stroke: rgb(235, 240, 248); stroke-opacity: 1; stroke-width: 1px;"/><path class="xgrid crisp" transform="translate(419.02,0)" d="M0,100v306" style="stroke: rgb(235, 240, 248); stroke-opacity: 1; stroke-width: 1px;"/><path class="xgrid crisp" transform="translate(434.79,0)" d="M0,100v306" style="stroke: rgb(235, 240, 248); stroke-opacity: 1; stroke-width: 1px;"/><path class="xgrid crisp" transform="translate(450.55,0)" d="M0,100v306" style="stroke: rgb(235, 240, 248); stroke-opacity: 1; stroke-width: 1px;"/><path class="xgrid crisp" transform="translate(466.31,0)" d="M0,100v306" style="stroke: rgb(235, 240, 248); stroke-opacity: 1; stroke-width: 1px;"/><path class="xgrid crisp" transform="translate(482.07,0)" d="M0,100v306" style="stroke: rgb(235, 240, 248); stroke-opacity: 1; stroke-width: 1px;"/><path class="xgrid crisp" transform="translate(497.84,0)" d="M0,100v306" style="stroke: rgb(235, 240, 248); stroke-opacity: 1; stroke-width: 1px;"/><path class="xgrid crisp" transform="translate(513.6,0)" d="M0,100v306" style="stroke: rgb(235, 240, 248); stroke-opacity: 1; stroke-width: 1px;"/><path class="xgrid crisp" transform="translate(529.36,0)" d="M0,100v306" style="stroke: rgb(235, 240, 248); stroke-opacity: 1; stroke-width: 1px;"/><path class="xgrid crisp" transform="translate(545.13,0)" d="M0,100v306" style="stroke: rgb(235, 240, 248); stroke-opacity: 1; stroke-width: 1px;"/><path class="xgrid crisp" transform="translate(560.89,0)" d="M0,100v306" style="stroke: rgb(235, 240, 248); stroke-opacity: 1; stroke-width: 1px;"/><path class="xgrid crisp" transform="translate(576.65,0)" d="M0,100v306" style="stroke: rgb(235, 240, 248); stroke-opacity: 1; stroke-width: 1px;"/><path class="xgrid crisp" transform="translate(592.4100000000001,0)" d="M0,100v306" style="stroke: rgb(235, 240, 248); stroke-opacity: 1; stroke-width: 1px;"/><path class="xgrid crisp" transform="translate(608.18,0)" d="M0,100v306" style="stroke: rgb(235, 240, 248); stroke-opacity: 1; stroke-width: 1px;"/></g><g class="y"><path class="ygrid crisp" transform="translate(0,315.12)" d="M88,0h532" style="stroke: rgb(235, 240, 248); stroke-opacity: 1; stroke-width: 1px;"/><path class="ygrid crisp" transform="translate(0,238.04)" d="M88,0h532" style="stroke: rgb(235, 240, 248); stroke-opacity: 1; stroke-width: 1px;"/><path class="ygrid crisp" transform="translate(0,160.95)" d="M88,0h532" style="stroke: rgb(235, 240, 248); stroke-opacity: 1; stroke-width: 1px;"/></g></g><g class="zerolinelayer"><path class="yzl zl crisp" transform="translate(0,392.2)" d="M88,0h532" style="stroke: rgb(0, 0, 0); stroke-opacity: 1; stroke-width: 2px;"/></g><path class="xlines-below"/><path class="ylines-below"/><g class="overlines-below"/><g class="xaxislayer-below"/><g class="yaxislayer-below"/><g class="overaxes-below"/><g class="plot" transform="translate(88, 100)" clip-path="url('#clipf84666xyplot')"><g class="scatterlayer mlayer"><g class="trace scatter trace22577f" style="stroke-miterlimit: 2; opacity: 1;"><g class="fills"/><g class="errorbars"/><g class="lines"><path class="js-line" d="M0,288.9L43.35,285.12L47.29,284.7L63.05,283.8L66.99,283.46L130.04,278.45L133.99,278.11L149.75,277.16L153.69,276.82L169.45,276.04L173.39,275.99L189.16,274.64L193.1,274.61L204.92,273.79L208.86,273.49L220.68,272.83L224.62,272.74L248.27,271.17L252.21,271.12L271.91,269.64L275.85,269.52L287.67,268.66L291.61,268.33L342.84,264.29L346.79,263.43L358.61,261.76L362.55,261.51L386.19,256.45L390.13,255.8L413.78,250.19L417.72,249.64L429.54,244.93L433.48,243.09L437.42,241.81L441.36,241.36L445.3,240.84L449.24,239.08L457.13,236.6L461.07,235.31L468.95,233.45L472.89,232.8L480.77,229.3L484.71,228.23L492.59,225.13L496.53,224.36L500.47,223.74L504.41,222.17L512.3,220.08L516.24,219.23L532,216.27" style="vector-effect: non-scaling-stroke; fill: none; stroke: rgb(0, 128, 0); stroke-opacity: 1; stroke-width: 2px; opacity: 1;"/></g><g class="points"/><g class="text"/></g><g class="trace scatter trace9fea6a" style="stroke-miterlimit: 2; opacity: 1;"><g class="fills"/><g class="errorbars"/><g class="lines"><path class="js-line" d="M0,251.41L3.94,249.8L7.88,243.52L19.7,225.55L23.64,221.56L27.59,216.49L31.53,214.17L35.47,209.7L39.41,202.81L51.23,189.55L55.17,189.14L59.11,187.3L63.05,180.39L66.99,174.68L70.93,166.74L74.87,161.36L78.81,157.82L82.76,155.58L86.7,154.91L94.58,143.82L98.52,139.34L110.34,131.54L114.28,130.09L130.04,116.06L133.99,114.1L145.81,108.44L149.75,105.63L165.51,98.88L169.45,98.72L173.39,97.9L177.33,95.39L181.27,94.17L185.21,92.05L193.1,89.16L197.04,88.72L200.98,87.89L204.92,86L216.74,82.07L220.68,80.86L224.62,80.2L228.56,78.65L240.39,75.43L244.33,73.14L252.21,71.63L256.15,70.17L271.91,67.88L275.85,67.62L287.67,65.24L291.61,34.06L303.44,32.28L307.38,31.98L331.02,28.18L334.96,27.87L342.84,26.08L346.79,24.07L378.31,19.97L382.25,19.71L401.96,19.17L405.9,18.56L437.42,17.43L441.36,17.33L476.83,16.39L480.77,16.48L532,15.3" style="vector-effect: non-scaling-stroke; fill: none; stroke: rgb(0, 0, 255); stroke-opacity: 1; stroke-width: 2px; opacity: 1;"/></g><g class="points"/><g class="text"/></g><g class="trace scatter tracecfcbca" style="stroke-miterlimit: 2; opacity: 1;"><g class="fills"/><g class="errorbars"/><g class="lines"><path class="js-line" d="M0,217.81L7.88,206.27L11.82,200.12L15.76,174.64L19.7,156.42L27.59,147.17L31.53,144.69L35.47,140.78L39.41,138.33L43.35,125.96L47.29,122.49L51.23,117.75L55.17,115.69L59.11,112.53L63.05,110.59L66.99,106.12L70.93,105.24L74.87,101.66L78.81,100.4L82.76,96.36L86.7,94.05L90.64,93.06L94.58,89.11L98.52,84.98L102.46,84.19L106.4,81.27L110.34,81.04L118.22,75.94L122.16,74.41L149.75,65.22L153.69,64.37L185.21,57.22L189.16,56.71L232.5,50.11L236.44,49.81L240.39,48.4L244.33,48.11L275.85,45.49L279.79,45.09L299.5,43.57L303.44,43.34L307.38,43.29L311.32,38.3L327.08,37.31L331.02,36.93L382.25,34.77L386.19,34.63L532,31.28" style="vector-effect: non-scaling-stroke; fill: none; stroke: rgb(128, 0, 128); stroke-opacity: 1; stroke-width: 2px; opacity: 1;"/></g><g class="points"/><g class="text"/></g><g class="trace scatter trace000985" style="stroke-miterlimit: 2; opacity: 1;"><g class="fills"/><g class="errorbars"/><g class="lines"><path class="js-line" d="M0,290.7L98.52,286.97L102.46,286.76L157.63,284.39L161.57,284.35L181.27,283.64L185.21,283.6L240.39,281.81L244.33,281.73L283.73,280.32L287.67,280.14L327.08,278.35L331.02,278.23L342.84,276.92L346.79,276.22L366.49,274.33L370.43,273.61L386.19,270.88L390.13,270.38L394.07,269.88L398.01,268.61L413.78,265.22L417.72,261.83L433.48,257.25L437.42,255.71L445.3,254.91L449.24,253.55L453.19,251.24L457.13,246.65L465.01,244.05L468.95,243.52L476.83,243.18L480.77,241.56L492.59,237.62L496.53,236.94L500.47,236.67L504.41,235.44L520.18,230.64L524.12,230.01L532,228.76" style="vector-effect: non-scaling-stroke; fill: none; stroke: rgb(255, 165, 0); stroke-opacity: 1; stroke-width: 2px; opacity: 1;"/></g><g class="points"/><g class="text"/></g></g></g><g class="overplot"/><path class="xlines-above crisp" d="M87,406.5H620" style="fill: none; stroke-width: 1px; stroke: rgb(235, 240, 248); stroke-opacity: 1;"/><path class="ylines-above crisp" d="M87.5,100V406" style="fill: none; stroke-width: 1px; stroke: rgb(235, 240, 248); stroke-opacity: 1;"/><g class="overlines-above"/><g class="xaxislayer-above"><g class="xtick"><text text-anchor="start" x="0" y="421.4" transform="translate(88,0) rotate(90,0,415.4)" style="font-family: 'Open Sans', verdana, arial, sans-serif; font-size: 12px; fill: rgb(42, 63, 95); fill-opacity: 1; white-space: pre;">04-12-2020</text></g><g class="xtick"><text text-anchor="start" x="0" y="421.4" transform="translate(103.76,0) rotate(90,0,415.4)" style="font-family: 'Open Sans', verdana, arial, sans-serif; font-size: 12px; fill: rgb(42, 63, 95); fill-opacity: 1; white-space: pre;">04-16-2020</text></g><g class="xtick"><text text-anchor="start" x="0" y="421.4" transform="translate(119.53,0) rotate(90,0,415.4)" style="font-family: 'Open Sans', verdana, arial, sans-serif; font-size: 12px; fill: rgb(42, 63, 95); fill-opacity: 1; white-space: pre;">04-20-2020</text></g><g class="xtick"><text text-anchor="start" x="0" y="421.4" transform="translate(135.29,0) rotate(90,0,415.4)" style="font-family: 'Open Sans', verdana, arial, sans-serif; font-size: 12px; fill: rgb(42, 63, 95); fill-opacity: 1; white-space: pre;">04-24-2020</text></g><g class="xtick"><text text-anchor="start" x="0" y="421.4" transform="translate(151.05,0) rotate(90,0,415.4)" style="font-family: 'Open Sans', verdana, arial, sans-serif; font-size: 12px; fill: rgb(42, 63, 95); fill-opacity: 1; white-space: pre;">04-28-2020</text></g><g class="xtick"><text text-anchor="start" x="0" y="421.4" transform="translate(166.81,0) rotate(90,0,415.4)" style="font-family: 'Open Sans', verdana, arial, sans-serif; font-size: 12px; fill: rgb(42, 63, 95); fill-opacity: 1; white-space: pre;">05-02-2020</text></g><g class="xtick"><text text-anchor="start" x="0" y="421.4" transform="translate(182.57999999999998,0) rotate(90,0,415.4)" style="font-family: 'Open Sans', verdana, arial, sans-serif; font-size: 12px; fill: rgb(42, 63, 95); fill-opacity: 1; white-space: pre;">05-06-2020</text></g><g class="xtick"><text text-anchor="start" x="0" y="421.4" transform="translate(198.34,0) rotate(90,0,415.4)" style="font-family: 'Open Sans', verdana, arial, sans-serif; font-size: 12px; fill: rgb(42, 63, 95); fill-opacity: 1; white-space: pre;">05-10-2020</text></g><g class="xtick"><text text-anchor="start" x="0" y="421.4" transform="translate(214.1,0) rotate(90,0,415.4)" style="font-family: 'Open Sans', verdana, arial, sans-serif; font-size: 12px; fill: rgb(42, 63, 95); fill-opacity: 1; white-space: pre;">05-14-2020</text></g><g class="xtick"><text text-anchor="start" x="0" y="421.4" transform="translate(229.87,0) rotate(90,0,415.4)" style="font-family: 'Open Sans', verdana, arial, sans-serif; font-size: 12px; fill: rgb(42, 63, 95); fill-opacity: 1; white-space: pre;">05-18-2020</text></g><g class="xtick"><text text-anchor="start" x="0" y="421.4" transform="translate(245.63,0) rotate(90,0,415.4)" style="font-family: 'Open Sans', verdana, arial, sans-serif; font-size: 12px; fill: rgb(42, 63, 95); fill-opacity: 1; white-space: pre;">05-22-2020</text></g><g class="xtick"><text text-anchor="start" x="0" y="421.4" transform="translate(261.39,0) rotate(90,0,415.4)" style="font-family: 'Open Sans', verdana, arial, sans-serif; font-size: 12px; fill: rgb(42, 63, 95); fill-opacity: 1; white-space: pre;">05-26-2020</text></g><g class="xtick"><text text-anchor="start" x="0" y="421.4" transform="translate(277.15999999999997,0) rotate(90,0,415.4)" style="font-family: 'Open Sans', verdana, arial, sans-serif; font-size: 12px; fill: rgb(42, 63, 95); fill-opacity: 1; white-space: pre;">05-30-2020</text></g><g class="xtick"><text text-anchor="start" x="0" y="421.4" transform="translate(292.91999999999996,0) rotate(90,0,415.4)" style="font-family: 'Open Sans', verdana, arial, sans-serif; font-size: 12px; fill: rgb(42, 63, 95); fill-opacity: 1; white-space: pre;">06-03-2020</text></g><g class="xtick"><text text-anchor="start" x="0" y="421.4" transform="translate(308.68,0) rotate(90,0,415.4)" style="font-family: 'Open Sans', verdana, arial, sans-serif; font-size: 12px; fill: rgb(42, 63, 95); fill-opacity: 1; white-space: pre;">06-07-2020</text></g><g class="xtick"><text text-anchor="start" x="0" y="421.4" transform="translate(324.44,0) rotate(90,0,415.4)" style="font-family: 'Open Sans', verdana, arial, sans-serif; font-size: 12px; fill: rgb(42, 63, 95); fill-opacity: 1; white-space: pre;">06-11-2020</text></g><g class="xtick"><text text-anchor="start" x="0" y="421.4" transform="translate(340.21000000000004,0) rotate(90,0,415.4)" style="font-family: 'Open Sans', verdana, arial, sans-serif; font-size: 12px; fill: rgb(42, 63, 95); fill-opacity: 1; white-space: pre;">06-15-2020</text></g><g class="xtick"><text text-anchor="start" x="0" y="421.4" transform="translate(355.97,0) rotate(90,0,415.4)" style="font-family: 'Open Sans', verdana, arial, sans-serif; font-size: 12px; fill: rgb(42, 63, 95); fill-opacity: 1; white-space: pre;">06-19-2020</text></g><g class="xtick"><text text-anchor="start" x="0" y="421.4" transform="translate(371.73,0) rotate(90,0,415.4)" style="font-family: 'Open Sans', verdana, arial, sans-serif; font-size: 12px; fill: rgb(42, 63, 95); fill-opacity: 1; white-space: pre;">06-23-2020</text></g><g class="xtick"><text text-anchor="start" x="0" y="421.4" transform="translate(387.5,0) rotate(90,0,415.4)" style="font-family: 'Open Sans', verdana, arial, sans-serif; font-size: 12px; fill: rgb(42, 63, 95); fill-opacity: 1; white-space: pre;">06-27-2020</text></g><g class="xtick"><text text-anchor="start" x="0" y="421.4" transform="translate(403.26,0) rotate(90,0,415.4)" style="font-family: 'Open Sans', verdana, arial, sans-serif; font-size: 12px; fill: rgb(42, 63, 95); fill-opacity: 1; white-space: pre;">07-01-2020</text></g><g class="xtick"><text text-anchor="start" x="0" y="421.4" transform="translate(419.02,0) rotate(90,0,415.4)" style="font-family: 'Open Sans', verdana, arial, sans-serif; font-size: 12px; fill: rgb(42, 63, 95); fill-opacity: 1; white-space: pre;">07-05-2020</text></g><g class="xtick"><text text-anchor="start" x="0" y="421.4" transform="translate(434.79,0) rotate(90,0,415.4)" style="font-family: 'Open Sans', verdana, arial, sans-serif; font-size: 12px; fill: rgb(42, 63, 95); fill-opacity: 1; white-space: pre;">07-09-2020</text></g><g class="xtick"><text text-anchor="start" x="0" y="421.4" transform="translate(450.55,0) rotate(90,0,415.4)" style="font-family: 'Open Sans', verdana, arial, sans-serif; font-size: 12px; fill: rgb(42, 63, 95); fill-opacity: 1; white-space: pre;">07-13-2020</text></g><g class="xtick"><text text-anchor="start" x="0" y="421.4" transform="translate(466.31,0) rotate(90,0,415.4)" style="font-family: 'Open Sans', verdana, arial, sans-serif; font-size: 12px; fill: rgb(42, 63, 95); fill-opacity: 1; white-space: pre;">07-17-2020</text></g><g class="xtick"><text text-anchor="start" x="0" y="421.4" transform="translate(482.07,0) rotate(90,0,415.4)" style="font-family: 'Open Sans', verdana, arial, sans-serif; font-size: 12px; fill: rgb(42, 63, 95); fill-opacity: 1; white-space: pre;">07-21-2020</text></g><g class="xtick"><text text-anchor="start" x="0" y="421.4" transform="translate(497.84,0) rotate(90,0,415.4)" style="font-family: 'Open Sans', verdana, arial, sans-serif; font-size: 12px; fill: rgb(42, 63, 95); fill-opacity: 1; white-space: pre;">07-25-2020</text></g><g class="xtick"><text text-anchor="start" x="0" y="421.4" transform="translate(513.6,0) rotate(90,0,415.4)" style="font-family: 'Open Sans', verdana, arial, sans-serif; font-size: 12px; fill: rgb(42, 63, 95); fill-opacity: 1; white-space: pre;">07-29-2020</text></g><g class="xtick"><text text-anchor="start" x="0" y="421.4" transform="translate(529.36,0) rotate(90,0,415.4)" style="font-family: 'Open Sans', verdana, arial, sans-serif; font-size: 12px; fill: rgb(42, 63, 95); fill-opacity: 1; white-space: pre;">08-02-2020</text></g><g class="xtick"><text text-anchor="start" x="0" y="421.4" transform="translate(545.13,0) rotate(90,0,415.4)" style="font-family: 'Open Sans', verdana, arial, sans-serif; font-size: 12px; fill: rgb(42, 63, 95); fill-opacity: 1; white-space: pre;">08-06-2020</text></g><g class="xtick"><text text-anchor="start" x="0" y="421.4" transform="translate(560.89,0) rotate(90,0,415.4)" style="font-family: 'Open Sans', verdana, arial, sans-serif; font-size: 12px; fill: rgb(42, 63, 95); fill-opacity: 1; white-space: pre;">08-10-2020</text></g><g class="xtick"><text text-anchor="start" x="0" y="421.4" transform="translate(576.65,0) rotate(90,0,415.4)" style="font-family: 'Open Sans', verdana, arial, sans-serif; font-size: 12px; fill: rgb(42, 63, 95); fill-opacity: 1; white-space: pre;">08-14-2020</text></g><g class="xtick"><text text-anchor="start" x="0" y="421.4" transform="translate(592.4100000000001,0) rotate(90,0,415.4)" style="font-family: 'Open Sans', verdana, arial, sans-serif; font-size: 12px; fill: rgb(42, 63, 95); fill-opacity: 1; white-space: pre;">08-18-2020</text></g><g class="xtick"><text text-anchor="start" x="0" y="421.4" transform="translate(608.18,0) rotate(90,0,415.4)" style="font-family: 'Open Sans', verdana, arial, sans-serif; font-size: 12px; fill: rgb(42, 63, 95); fill-opacity: 1; white-space: pre;">08-22-2020</text></g></g><g class="yaxislayer-above"><g class="ytick"><text text-anchor="end" x="84.6" y="4.199999999999999" transform="translate(0,392.2)" style="font-family: 'Open Sans', verdana, arial, sans-serif; font-size: 12px; fill: rgb(42, 63, 95); fill-opacity: 1; white-space: pre;">0.000%</text></g><g class="ytick"><text text-anchor="end" x="84.6" y="4.199999999999999" transform="translate(0,315.12)" style="font-family: 'Open Sans', verdana, arial, sans-serif; font-size: 12px; fill: rgb(42, 63, 95); fill-opacity: 1; white-space: pre;">0.050%</text></g><g class="ytick"><text text-anchor="end" x="84.6" y="4.199999999999999" transform="translate(0,238.04)" style="font-family: 'Open Sans', verdana, arial, sans-serif; font-size: 12px; fill: rgb(42, 63, 95); fill-opacity: 1; white-space: pre;">0.100%</text></g><g class="ytick"><text text-anchor="end" x="84.6" y="4.199999999999999" transform="translate(0,160.95)" style="font-family: 'Open Sans', verdana, arial, sans-serif; font-size: 12px; fill: rgb(42, 63, 95); fill-opacity: 1; white-space: pre;">0.150%</text></g></g><g class="overaxes-above"/></g></g><g class="polarlayer"/><g class="ternarylayer"/><g class="geolayer"/><g class="funnelarealayer"/><g class="pielayer"/><g class="treemaplayer"/><g class="sunburstlayer"/><g class="glimages"/><defs id="topdefs-f84666"><g class="clips"/><clipPath id="legendf84666"><rect width="115" height="86" x="0" y="0"/></clipPath></defs><g class="layer-above"><g class="imagelayer"/><g class="shapelayer"/></g><g class="infolayer"><g class="legend" pointer-events="all" transform="translate(103.96, 109.18)"><rect class="bg" shape-rendering="crispEdges" width="115" height="86" x="0" y="0" style="stroke: rgb(68, 68, 68); stroke-opacity: 1; fill: rgb(255, 255, 255); fill-opacity: 1; stroke-width: 0px;"/><g class="scrollbox" transform="translate(0, 0)" clip-path="url('#legendf84666')"><g class="groups"><g class="traces" transform="translate(0, 14.5)" style="opacity: 1;"><text class="legendtext user-select-none" text-anchor="start" x="40" y="4.680000000000001" style="font-family: 'Open Sans', verdana, arial, sans-serif; font-size: 12px; fill: rgb(42, 63, 95); fill-opacity: 1; white-space: pre;">Florida</text><g class="layers" style="opacity: 1;"><g class="legendfill"/><g class="legendlines"><path class="js-line" d="M5,0h30" style="fill: none; stroke: rgb(0, 128, 0); stroke-opacity: 1; stroke-width: 2px;"/></g><g class="legendsymbols"><g class="legendpoints"/></g></g><rect class="legendtoggle" pointer-events="all" x="0" y="-9.5" width="109.296875" height="19" style="cursor: pointer; fill: rgb(0, 0, 0); fill-opacity: 0;"/></g><g class="traces" transform="translate(0, 33.5)" style="opacity: 1;"><text class="legendtext user-select-none" text-anchor="start" x="40" y="4.680000000000001" style="font-family: 'Open Sans', verdana, arial, sans-serif; font-size: 12px; fill: rgb(42, 63, 95); fill-opacity: 1; white-space: pre;">New Jersey</text><g class="layers" style="opacity: 1;"><g class="legendfill"/><g class="legendlines"><path class="js-line" d="M5,0h30" style="fill: none; stroke: rgb(0, 0, 255); stroke-opacity: 1; stroke-width: 2px;"/></g><g class="legendsymbols"><g class="legendpoints"/></g></g><rect class="legendtoggle" pointer-events="all" x="0" y="-9.5" width="109.296875" height="19" style="cursor: pointer; fill: rgb(0, 0, 0); fill-opacity: 0;"/></g><g class="traces" transform="translate(0, 52.5)" style="opacity: 1;"><text class="legendtext user-select-none" text-anchor="start" x="40" y="4.680000000000001" style="font-family: 'Open Sans', verdana, arial, sans-serif; font-size: 12px; fill: rgb(42, 63, 95); fill-opacity: 1; white-space: pre;">New York</text><g class="layers" style="opacity: 1;"><g class="legendfill"/><g class="legendlines"><path class="js-line" d="M5,0h30" style="fill: none; stroke: rgb(128, 0, 128); stroke-opacity: 1; stroke-width: 2px;"/></g><g class="legendsymbols"><g class="legendpoints"/></g></g><rect class="legendtoggle" pointer-events="all" x="0" y="-9.5" width="109.296875" height="19" style="cursor: pointer; fill: rgb(0, 0, 0); fill-opacity: 0;"/></g><g class="traces" transform="translate(0, 71.5)" style="opacity: 1;"><text class="legendtext user-select-none" text-anchor="start" x="40" y="4.680000000000001" style="font-family: 'Open Sans', verdana, arial, sans-serif; font-size: 12px; fill: rgb(42, 63, 95); fill-opacity: 1; white-space: pre;">Texas</text><g class="layers" style="opacity: 1;"><g class="legendfill"/><g class="legendlines"><path class="js-line" d="M5,0h30" style="fill: none; stroke: rgb(255, 165, 0); stroke-opacity: 1; stroke-width: 2px;"/></g><g class="legendsymbols"><g class="legendpoints"/></g></g><rect class="legendtoggle" pointer-events="all" x="0" y="-9.5" width="109.296875" height="19" style="cursor: pointer; fill: rgb(0, 0, 0); fill-opacity: 0;"/></g></g></g><rect class="scrollbar" rx="20" ry="3" width="0" height="0" x="0" y="0" style="fill: rgb(128, 139, 164); fill-opacity: 1;"/></g><g class="g-gtitle"><text class="gtitle" x="350" y="50" text-anchor="middle" dy="0em" style="font-family: 'Open Sans', verdana, arial, sans-serif; font-size: 17px; fill: rgb(42, 63, 95); opacity: 1; font-weight: normal; white-space: pre;">Coronavirus Deaths Per Population</text></g><g class="g-xtitle"/><g class="g-ytitle" transform="translate(2.0029296875,0)"><text class="ytitle" transform="rotate(-90,11.996875000000003,253)" x="11.996875000000003" y="253" text-anchor="middle" style="font-family: 'Open Sans', verdana, arial, sans-serif; font-size: 14px; fill: rgb(42, 63, 95); opacity: 1; font-weight: normal; white-space: pre;">Deaths_Per_Population</text></g></g></svg>